<svg xmlns="http://www.w3.org/2000/svg" viewBox="0 0 64 64" fill="none">
  <defs>
    <radialGradient id="moonDay" cx="0" cy="0" r="1" gradientUnits="userSpaceOnUse" gradientTransform="translate(22 19) rotate(90) scale(11)">
      <stop offset="0" stop-color="#E1F5FE"/>
      <stop offset="0.7" stop-color="#90CAF9"/>
      <stop offset="1" stop-color="#42A5F5"/>
    </radialGradient>
    <linearGradient id="cloudNight" x1="10" y1="30" x2="54" y2="50" gradientUnits="userSpaceOnUse">
      <stop offset="0" stop-color="#F4F7FB"/>
      <stop offset="1" stop-color="#A8B9D0"/>
    </linearGradient>
  </defs>
  <path d="M30 10c-1.1 3-1.1 6.4.2 9.5 1.3 3.3 3.7 6 6.7 7.4-1.6 4.8-6.1 8.1-11.4 8.1-6.5 0-11.8-5.2-11.8-11.8S19 11.4 25.5 11.4c1.6 0 3.1.3 4.5.6z" fill="url(#moonDay)"/>
  <circle cx="45" cy="17" r="1.5" fill="#FFFDE7"/>
  <circle cx="50" cy="29" r="1.1" fill="#FFFDE7"/>
  <path d="M20 48h28c6.6 0 11.5-4.5 11.5-10.1 0-5.1-3.8-9.3-8.9-10-1.4-4.6-5.6-8-10.6-8-4.8 0-8.9 3.1-10.4 7.3C24 26.6 19.2 31 19.2 36.5 19.2 42.2 21.4 48 20 48z" fill="url(#cloudNight)"/>
</svg>
