<svg xmlns="http://www.w3.org/2000/svg" viewBox="0 0 64 64" fill="none">
  <defs>
    <linearGradient id="stormCloud" x1="10" y1="18" x2="54" y2="48" gradientUnits="userSpaceOnUse">
      <stop offset="0" stop-color="#F2F7FF"/>
      <stop offset="1" stop-color="#96A9C0"/>
    </linearGradient>
    <linearGradient id="boltFill" x1="28" y1="28" x2="40" y2="52" gradientUnits="userSpaceOnUse">
      <stop offset="0" stop-color="#FFF176"/>
      <stop offset="1" stop-color="#FFB300"/>
    </linearGradient>
  </defs>
  <path d="M18 34h28c7 0 12-4.8 12-10.8 0-5.5-4.2-10-9.7-10.7C46.8 7.8 42.2 4 36.7 4c-5.3 0-9.9 3.5-11.4 8.4C15.2 12.7 10 17.5 10 23.5 10 30.1 13.9 34 18 34z" fill="url(#stormCloud)"/>
  <path d="M30 34h8l-5 10h5l-11 14 3-10h-5l5-14z" fill="url(#boltFill)"/>
</svg>
